<svg xmlns="http://www.w3.org/2000/svg" viewBox="0 0 19.5 14.5"><defs><style>.cls-1{fill:none;stroke:#fff;stroke-linecap:round;stroke-linejoin:round;}.cls-2{fill:#fff;}</style></defs><title>Ресурс 3</title><g id="Слой_2" data-name="Слой 2"><g id="Hobby"><path class="cls-1" d="M14.24,11.88H6.66S6.18,7,.5,9.17c0,0,1.42-4.33,3.79-4.33H7.13A2.35,2.35,0,0,1,8.54,6.76,3.56,3.56,0,0,0,9.7,9.21c2.07,1.68,3.59-1.24,3.59-3.29,0-1.62-1.9-4.33-1.9-4.33V.51h.94a1,1,0,0,1,1,1.08h1a1,1,0,0,1,.94,1.08h0a1,1,0,0,1-.94,1.09h0a7.37,7.37,0,0,1,.47,2.7s2.37,0,2.84,1.63"/><path class="cls-2" d="M3.82,9.17a2,2,0,0,1,1.89,2.16A2,2,0,0,1,3.82,13.5a2,2,0,0,1-1.9-2.17,2,2,0,0,1,1.9-2.16m0-1a3,3,0,0,0-2.9,3.16,3,3,0,0,0,2.9,3.17,3,3,0,0,0,2.89-3.17A3,3,0,0,0,3.82,8.17Z"/><path class="cls-2" d="M16.61,9.17a2,2,0,0,1,1.89,2.16,2,2,0,0,1-1.89,2.17,2,2,0,0,1-1.9-2.17,2,2,0,0,1,1.9-2.16m0-1a3,3,0,0,0-2.9,3.16,3,3,0,0,0,2.9,3.17,3,3,0,0,0,2.89-3.17,3,3,0,0,0-2.89-3.16Z"/><line class="cls-1" x1="11.04" y1="1.79" x2="8.43" y2="0.96"/><line class="cls-1" x1="6.66" y1="6.19" x2="2.87" y2="6.19"/></g></g></svg>