<?xml version="1.0" encoding="utf-8"?>
<!-- Generator: Adobe Illustrator 22.0.1, SVG Export Plug-In . SVG Version: 6.00 Build 0)  -->
<svg version="1.1" id="Слой_1" xmlns="http://www.w3.org/2000/svg" xmlns:xlink="http://www.w3.org/1999/xlink" x="0px" y="0px"
	 viewBox="0 0 19 19.1" style="enable-background:new 0 0 19 19.1;" xml:space="preserve">
<style type="text/css">
	.st0{fill:#FFFFFF;}
</style>
<g>
	<g>
		<path class="st0" d="M13.9,1.5c2,0,3.6,1.6,3.6,3.6V14c0,2-1.6,3.6-3.6,3.6H5.1c-2,0-3.6-1.6-3.6-3.6V5c0-1.9,1.6-3.5,3.6-3.5
			H13.9 M13.9,0H5.1C2.3,0,0,2.3,0,5.1V14c0,2.8,2.3,5.1,5.1,5.1H14c2.8,0,5.1-2.3,5.1-5.1V5C19,2.3,16.7,0,13.9,0L13.9,0z"/>
	</g>
	<g>
		<path class="st0" d="M9.5,5.5c2.2,0,4,1.8,4,4s-1.8,4-4,4s-4-1.8-4-4S7.3,5.5,9.5,5.5 M9.5,4C6.5,4,4,6.5,4,9.5S6.5,15,9.5,15
			S15,12.5,15,9.5S12.5,4,9.5,4L9.5,4z"/>
	</g>
	<g>
		<circle class="st0" cx="14.6" cy="3.9" r="0.9"/>
	</g>
</g>
</svg>
