<?xml version="1.0" encoding="utf-8"?>
<!-- Generator: Adobe Illustrator 22.0.1, SVG Export Plug-In . SVG Version: 6.00 Build 0)  -->
<svg version="1.1" id="Слой_1" xmlns="http://www.w3.org/2000/svg" xmlns:xlink="http://www.w3.org/1999/xlink" x="0px" y="0px"
	 viewBox="0 0 50 50" style="enable-background:new 0 0 50 50;" xml:space="preserve">
<style type="text/css">
	.st0{fill:#FFFFFF;}
</style>
<g>
	<g>
		<path class="st0" d="M15,44.5c-5.2,0-9.5-4.3-9.5-9.5V15c0-5.2,4.3-9.5,9.5-9.5h20c5.2,0,9.5,4.3,9.5,9.5v20
			c0,5.2-4.3,9.5-9.5,9.5H15z"/>
		<path d="M35,7c4.4,0,8,3.6,8,8v20c0,4.4-3.6,8-8,8H15c-4.4,0-8-3.6-8-8V15c0-4.4,3.6-8,8-8H35 M35,4H15C8.9,4,4,8.9,4,15v20
			c0,6.1,4.9,11,11,11h20c6.1,0,11-4.9,11-11V15C46,8.9,41.1,4,35,4L35,4z"/>
	</g>
	<g>
		<path d="M25,16c5,0,9,4,9,9c0,5-4,9-9,9c-5,0-9-4-9-9C16,20,20,16,25,16 M25,13c-6.6,0-12,5.4-12,12s5.4,12,12,12s12-5.4,12-12
			S31.6,13,25,13L25,13z"/>
	</g>
	<g>
		<circle cx="36.5" cy="12.5" r="2"/>
	</g>
</g>
</svg>
