<?xml version="1.0" encoding="utf-8"?>
<!-- Generator: Adobe Illustrator 22.0.1, SVG Export Plug-In . SVG Version: 6.00 Build 0)  -->
<svg version="1.1" id="Слой_1" xmlns="http://www.w3.org/2000/svg" xmlns:xlink="http://www.w3.org/1999/xlink" x="0px" y="0px"
	 viewBox="0 0 98 18" style="enable-background:new 0 0 98 18;" xml:space="preserve">
<style type="text/css">
	.st0{fill:#FFFFFF;}
	.st1{fill:#FF4545;}
</style>
<title></title>
<g>
	<path class="st0" d="M13.1,4.7c0,2-0.6,3.6-2,4.6s-3.4,1.6-5.9,1.6H3.6L2.1,18H0L3.8,0.1h4.1c1.8,0,3,0.4,4,1.2S13.1,3.1,13.1,4.7z
		 M4,9.1h1.6c1.8,0,3.1-0.4,4-1.2c0.9-0.7,1.4-1.9,1.4-3.2c0-1-0.3-1.8-0.8-2.2C9.5,2.1,8.6,1.8,7.4,1.8H5.6L4,9.1z"/>
	<path class="st0" d="M23.2,18h-9L18,0.1h9L26.6,2h-6.9l-1.2,5.8H25l-0.3,1.9h-6.6l-1.4,6.6h6.9L23.2,18z"/>
	<path class="st0" d="M42,7.2c0,2.1-0.4,4-1.3,5.7s-2.1,2.9-3.7,3.8c-1.6,0.8-3.6,1.4-5.7,1.4h-4.3l3.8-17.9h4.2
		c2.3,0,4,0.6,5.1,1.9C41.4,3.2,42,4.9,42,7.2z M31.5,16.2c1.7,0,3.1-0.4,4.4-1.2c1.3-0.7,2.2-1.8,2.8-3.1c0.6-1.4,1-2.9,1-4.7
		s-0.4-3.1-1.3-4c-0.8-0.8-2.1-1.4-3.7-1.4h-2.2l-3,14.3H31.5z"/>
	<path class="st0" d="M52.7,12.2h-6.1l-3,5.8h-2.3l9.8-17.9h2.1L55.5,18h-2.1L52.7,12.2z M52.5,10.4L52,6.7
		c-0.2-1.5-0.3-2.9-0.3-4.3c-0.3,0.7-0.6,1.5-0.9,2.2s-1.4,2.6-3,5.9h4.7V10.4z"/>
	<path class="st0" d="M57.7,18l3.8-17.9h2.1l-3.4,16h6.9L66.7,18H57.7z"/>
	<path class="st1" d="M80.1,18h-4.2l-2.5-7.3l-1.6,0.8L70.5,18h-3.8l3.8-17.9h3.8l-1.9,8.6l2-2.5l5-6.1h4.4l-7.3,8.6L80.1,18z"/>
	<path class="st1" d="M97.3,18H80.7l0.4-2.5l9.5-12.3H78.9L79.5,0h16.8l-0.5,2.5l-9.5,12.3H98L97.3,18z"/>
</g>
</svg>
