<?xml version="1.0" encoding="utf-8"?>
<!-- Generator: Adobe Illustrator 22.0.1, SVG Export Plug-In . SVG Version: 6.00 Build 0)  -->
<svg version="1.1" id="Слой_1" xmlns="http://www.w3.org/2000/svg" xmlns:xlink="http://www.w3.org/1999/xlink" x="0px" y="0px"
	 viewBox="0 0 50 50" style="enable-background:new 0 0 50 50;" xml:space="preserve">
<style type="text/css">
	.st0{fill:#FFFFFF;}
</style>
<g>
	<g>
		<path d="M35.9,11c3.9,0,7.1,3.2,7.1,7.1v13.9c0,3.9-3.2,7.1-7.1,7.1H14.1C10.2,39,7,35.8,7,31.9V18.1c0-3.9,3.2-7.1,7.1-7.1H35.9
			 M35.9,8H14.1C8.5,8,4,12.5,4,18.1v13.9C4,37.5,8.5,42,14.1,42h21.9C41.5,42,46,37.5,46,31.9V18.1C46,12.5,41.5,8,35.9,8L35.9,8z"
			/>
	</g>
	<g>
		<path class="st0" d="M22,31.5c-0.3,0-0.5-0.1-0.7-0.2c-0.5-0.3-0.8-0.8-0.8-1.3V20c0-0.5,0.3-1,0.8-1.3c0.2-0.1,0.5-0.2,0.7-0.2
			c0.3,0,0.6,0.1,0.8,0.2l8,5c0.4,0.3,0.7,0.8,0.7,1.3s-0.3,1-0.7,1.3l-8,5C22.6,31.4,22.3,31.5,22,31.5z"/>
		<path d="M22,20l8,5l-8,5V20 M22,17c-0.5,0-1,0.1-1.5,0.4c-1,0.5-1.5,1.5-1.5,2.6v10c0,1.1,0.6,2.1,1.5,2.6c0.5,0.3,1,0.4,1.5,0.4
			c0.6,0,1.1-0.2,1.6-0.5l8-5C32.5,27,33,26,33,25s-0.5-2-1.4-2.5l-8-5C23.1,17.2,22.6,17,22,17L22,17z"/>
	</g>
</g>
</svg>
