<?xml version="1.0" encoding="utf-8"?>
<!-- Generator: Adobe Illustrator 22.0.1, SVG Export Plug-In . SVG Version: 6.00 Build 0)  -->
<svg version="1.1" id="Слой_1" xmlns="http://www.w3.org/2000/svg" xmlns:xlink="http://www.w3.org/1999/xlink" x="0px" y="0px"
	 viewBox="0 0 22 18" style="enable-background:new 0 0 22 18;" xml:space="preserve">
<style type="text/css">
	.st0{fill:#FFFFFF;}
</style>
<g>
	<g>
		<path class="st0" d="M16.7,1.5c2.1,0,3.8,1.7,3.8,3.8v7.5c0,2.1-1.7,3.8-3.8,3.8H5.3c-2.1,0-3.8-1.7-3.8-3.8V5.3
			c0-2.1,1.7-3.8,3.8-3.8H16.7 M16.7,0H5.3C2.4,0,0,2.4,0,5.3v7.5C0,15.7,2.4,18,5.3,18h11.5c2.9,0,5.3-2.4,5.3-5.3V5.3
			C22,2.4,19.6,0,16.7,0L16.7,0z"/>
	</g>
	<g>
		<path class="st0" d="M9.4,6.3L13.6,9l-4.2,2.7V6.3 M9.4,4.8C9.2,4.8,8.9,4.9,8.7,5C8.2,5.3,7.9,5.8,7.9,6.3v5.4
			c0,0.5,0.3,1.1,0.8,1.3c0.2,0.1,0.5,0.2,0.7,0.2c0.3,0,0.6-0.1,0.8-0.2l4.2-2.7c0.4-0.3,0.7-0.8,0.7-1.3s-0.3-1-0.7-1.3l-4.2-2.7
			C10,4.9,9.7,4.8,9.4,4.8L9.4,4.8z"/>
	</g>
</g>
</svg>
